<!DOCTYPE svg PUBLIC "-//W3C//DTD SVG 1.1//EN" "http://www.w3.org/Graphics/SVG/1.1/DTD/svg11.dtd">
<!-- Uploaded to: SVG Repo, www.svgrepo.com, Transformed by: SVG Repo Mixer Tools -->
<svg height="800px" width="800px" version="1.1" id="Layer_1" xmlns="http://www.w3.org/2000/svg" xmlns:xlink="http://www.w3.org/1999/xlink" viewBox="0 0 512 512" xml:space="preserve" fill="#000a18">
<g id="SVGRepo_bgCarrier" stroke-width="0"/>
<g id="SVGRepo_tracerCarrier" stroke-linecap="round" stroke-linejoin="round"/>
<g id="SVGRepo_iconCarrier"> <path style="fill:#000a18;" d="M456.488,470.501h47.427v20.48c0,7.143-5.792,12.935-12.935,12.935H21.019 c-7.144,0-12.935-5.792-12.935-12.935v-20.48h420.021"/> <path style="fill:#5dc0e1;" d="M503.916,470.501V264.963c0-23.312-5.792-29.103-12.935-29.103H21.019 c-7.144,0-12.935,5.792-12.935,29.103v205.538"/> <path style="fill:#5dc0e1dc0e1dc0e1;" d="M376.602,38.424h32.604h81.2c7.461,0,13.509-6.048,13.509-13.509v-3.32 c0-7.461-6.048-13.509-13.509-13.509h-81.2H102.793h-81.2C14.132,8.084,8.084,14.132,8.084,21.593v3.32 c0,7.461,6.048,13.509,13.509,13.509h81.2H346.42"/> <path style="fill:#000a18;" d="M37.179,488.664v-20.48H15.621v20.48c0,7.143,5.79,12.935,12.935,12.935h21.558 C42.969,501.598,37.179,495.807,37.179,488.664z"/> <path style="fill:#000a18;" d="M50.113,233.541H28.556c-7.144,0-12.935,5.792-12.935,29.103v205.539h21.558V262.644 C37.179,239.333,42.969,233.541,50.113,233.541z"/> <path style="fill:#5dc0e1dc0e1;" d="M37.897,25.83v-3.319c0-7.462,6.048-13.51,13.51-13.51H29.13c-7.462,0-13.51,6.048-13.51,13.51v3.319 c0,7.462,6.048,13.51,13.51,13.51h22.277C43.945,39.34,37.897,33.292,37.897,25.83z"/> <g style="opacity:0.1;"> <path style="fill:#F5F5F5;" d="M498.517,233.541H203.203c21.517,111.048,119.253,194.906,236.591,194.906 c24.953,0,49.02-3.793,71.657-10.832V262.644C511.451,239.333,505.66,233.541,498.517,233.541z"/> </g> <g> <path style="fill:#000a1800a18;" d="M57.667,256.539c-4.465,0-8.084,3.62-8.084,8.084V440.32c0,4.466,3.62,8.084,8.084,8.084 s8.084-3.618,8.084-8.084V264.623C65.752,260.159,62.132,256.539,57.667,256.539z"/> <path style="fill:#000a1800a18;" d="M107.251,448.404c4.465,0,8.084-3.618,8.084-8.084V264.623c0-4.465-3.62-8.084-8.084-8.084 s-8.084,3.62-8.084,8.084V440.32C99.166,444.786,102.786,448.404,107.251,448.404z"/> <path style="fill:#000a1800a18;" d="M156.834,448.404c4.465,0,8.084-3.618,8.084-8.084V264.623c0-4.465-3.62-8.084-8.084-8.084 c-4.465,0-8.084,3.62-8.084,8.084V440.32C148.749,444.786,152.369,448.404,156.834,448.404z"/> <path style="fill:#000a1800a18;" d="M206.417,448.404c4.465,0,8.084-3.618,8.084-8.084V264.623c0-4.465-3.62-8.084-8.084-8.084 c-4.465,0-8.084,3.62-8.084,8.084V440.32C198.333,444.786,201.952,448.404,206.417,448.404z"/> <path style="fill:#000a1800a18;" d="M256,448.404c4.466,0,8.084-3.618,8.084-8.084V264.623c0-4.465-3.618-8.084-8.084-8.084 c-4.465,0-8.084,3.62-8.084,8.084V440.32C247.916,444.786,251.535,448.404,256,448.404z"/> <path style="fill:#000a1800a18;" d="M305.583,448.404c4.466,0,8.084-3.618,8.084-8.084V264.623c0-4.465-3.618-8.084-8.084-8.084 c-4.466,0-8.084,3.62-8.084,8.084V440.32C297.499,444.786,301.117,448.404,305.583,448.404z"/> <path style="fill:#000a1800a18;" d="M355.166,448.404c4.466,0,8.084-3.618,8.084-8.084V264.623c0-4.465-3.618-8.084-8.084-8.084 s-8.084,3.62-8.084,8.084V440.32C347.082,444.786,350.701,448.404,355.166,448.404z"/> <path style="fill:#000a1800a18;" d="M404.749,448.404c4.466,0,8.084-3.618,8.084-8.084V264.623c0-4.465-3.618-8.084-8.084-8.084 s-8.084,3.62-8.084,8.084V440.32C396.665,444.786,400.284,448.404,404.749,448.404z"/> <path style="fill:#000a1800a18;" d="M454.333,448.404c4.466,0,8.084-3.618,8.084-8.084V264.623c0-4.465-3.618-8.084-8.084-8.084 s-8.084,3.62-8.084,8.084V440.32C446.248,444.786,449.867,448.404,454.333,448.404z"/> <path style="fill:#000a1800a18;" d="M490.407,30.34H376.602c-4.466,0-8.084,3.618-8.084,8.084s3.618,8.084,8.084,8.084h113.804 c11.906,0,21.593-9.687,21.593-21.593v-3.32C512,9.687,502.313,0,490.407,0H21.593C9.687,0,0,9.687,0,21.593v3.32 C0,36.82,9.687,46.507,21.593,46.507h226.322v47.921c-9.409,3.337-16.167,12.324-16.167,22.862c0,1.254,0.096,2.486,0.28,3.689 l-156.954,84.22c-3.943-4.213-9.535-6.866-15.747-6.866h-3.32c-11.906,0-21.593,9.687-21.593,21.593v7.848H21.019 C0,227.774,0,255.764,0,264.962v205.539v20.48C0,502.571,9.428,512,21.019,512h469.962c11.59,0,21.019-9.429,21.019-21.019v-20.48 V264.963c0-9.198,0-37.187-21.019-37.187h-13.394v-7.848c0-11.906-9.687-21.593-21.593-21.593h-3.32 c-6.212,0-11.803,2.653-15.747,6.865L279.972,120.98c0.184-1.203,0.28-2.435,0.28-3.689c0-10.539-6.759-19.525-16.168-22.862 V46.508h82.337c4.466,0,8.084-3.618,8.084-8.084s-3.618-8.084-8.084-8.084H21.593c-2.991,0-5.425-2.434-5.425-5.425v-3.32 c0-2.992,2.434-5.426,5.425-5.426h468.813c2.991,0,5.425,2.434,5.425,5.425v3.32C495.832,27.906,493.398,30.34,490.407,30.34z M50.582,219.926c0-2.991,2.434-5.425,5.425-5.425h3.32c2.991,0,5.425,2.434,5.425,5.425v7.848h-14.17V219.926z M447.249,219.926 c0-2.991,2.434-5.425,5.425-5.425h3.32c2.991,0,5.425,2.434,5.425,5.425v7.848h-14.17L447.249,219.926L447.249,219.926z M439.164,243.944h30.338h21.478c0.793,0,1.191,0,2.023,1.549c1.055,1.967,2.827,7.114,2.827,19.47v197.454h-39.343 c-4.466,0-8.084,3.62-8.084,8.084c0,4.466,3.618,8.084,8.084,8.084h39.343v12.396c0,2.675-2.176,4.851-4.851,4.851H21.019 c-2.675,0-4.851-2.175-4.851-4.851v-12.396h411.937c4.466,0,8.084-3.618,8.084-8.084c0-4.465-3.618-8.084-8.084-8.084H16.168 V264.963c0-12.357,1.771-17.503,2.827-19.47c0.831-1.549,1.23-1.549,2.023-1.549h21.479h30.34H439.164z M272.315,135.219 l158.765,85.189v7.366H80.921v-7.365l158.764-85.191c4.311,3.927,10.038,6.324,16.315,6.324 C262.277,141.544,268.004,139.145,272.315,135.219z M256,109.207c4.458,0,8.084,3.626,8.084,8.084s-3.626,8.084-8.084,8.084 c-4.457,0-8.083-3.626-8.083-8.084S251.543,109.207,256,109.207z"/> </g> </g>
</svg>