<!DOCTYPE svg PUBLIC "-//W3C//DTD SVG 1.1//EN" "http://www.w3.org/Graphics/SVG/1.1/DTD/svg11.dtd">
<!-- Uploaded to: SVG Repo, www.svgrepo.com, Transformed by: SVG Repo Mixer Tools -->
<svg height="256px" width="256px" version="1.1" id="Layer_1" xmlns="http://www.w3.org/2000/svg" xmlns:xlink="http://www.w3.org/1999/xlink" viewBox="0 0 512 512" xml:space="preserve" fill="#000000">
<g id="SVGRepo_bgCarrier" stroke-width="0"/>
<g id="SVGRepo_tracerCarrier" stroke-linecap="round" stroke-linejoin="round"/>
<g id="SVGRepo_iconCarrier"> <path style="fill:#5dc0e1;" d="M151.833,280.107L79.59,170.533c-7.354-11.155-7.354-25.619,0-36.775l72.243-109.574 c6.181-9.376,16.659-15.018,27.889-15.018H332.28c11.23,0,21.708,5.642,27.889,15.018l72.243,109.574 c7.354,11.155,7.354,25.619,0,36.775l-72.243,109.574c-6.181,9.376-16.659,15.018-27.889,15.018H179.722 C168.492,295.123,158.014,289.481,151.833,280.107z"/> <path style="fill:#000a18;" d="M432.41,133.758L360.167,24.184c-3.834-5.817-9.324-10.192-15.62-12.678l66.55,100.94 c7.354,11.155,7.354,25.619,0,36.775l-72.243,109.574c-6.181,9.376-16.659,15.018-27.889,15.018H158.409 c-4.263,0-8.416-0.816-12.269-2.339l5.692,8.634c6.181,9.376,16.659,15.018,27.889,15.018h152.558 c11.23,0,21.707-5.642,27.889-15.018l72.243-109.574C439.765,159.378,439.765,144.912,432.41,133.758z"/> <path style="fill:#f48c06;" d="M310.921,339.75H201.079c-10.845,0-19.636-8.792-19.636-19.637v-24.975h149.113v24.975 C330.557,330.958,321.766,339.75,310.921,339.75z"/> <path style="fill:#faa307;" d="M301.115,295.138v24.975c0,10.845-8.792,19.637-19.637,19.637h29.443 c10.845,0,19.637-8.792,19.637-19.637v-24.975H301.115z"/> <g> <polygon style="fill:#000a1800a18;" points="91.228,188.185 101.779,204.187 232.381,9.167 210.316,9.167 "/> <polygon style="fill:#000a1800a18;" points="272.424,295.123 294.565,295.123 417.264,110.785 406.704,94.769 "/> </g> <g> <polygon style="fill:#5dc0e1;" points="286.708,273.811 272.424,295.123 294.565,295.123 308.751,273.811 "/> <path style="fill:#5dc0e1;" d="M406.704,94.769l-3.661,5.462l8.053,12.215c0.879,1.332,1.644,2.713,2.313,4.129l3.854-5.79 L406.704,94.769z"/> </g> <path style="fill:#000a1800a18;" d="M375.503,47.442l-10.929-16.578l-118.348,176.85c-0.002,0.004-0.005,0.007-0.007,0.011 l-55.008,82.226c-1.065,1.59-1.563,3.393-1.547,5.171h20.145l57.619-86.129l0,0L375.503,47.442z"/> <g> <polygon style="fill:#5dc0e1;" points="360.915,36.331 371.846,52.91 375.503,47.442 371.161,40.858 364.572,30.865 "/> <path style="fill:#5dc0e1;" d="M202.008,273.811l-10.798,16.141c-1.065,1.59-1.563,3.393-1.547,5.171h20.145l14.257-21.313h-22.057 V273.811z"/> </g> <polygon style="fill:#000a1800a18;" points="316.72,9.167 294.637,9.167 132.937,251.447 133.888,252.889 143.86,268.013 "/> <g> <path style="fill:#000a18;" d="M87.244,165.486c-5.344-8.105-5.344-18.578,0-26.683L159.485,29.23 c4.498-6.823,12.062-10.896,20.235-10.896h59.167c5.064,0,9.167-4.104,9.167-9.167S243.952,0,238.888,0h-59.167 c-14.355,0-27.641,7.155-35.542,19.138L92.835,97.015V11.506c0-5.063-4.103-9.167-9.167-9.167c-5.064,0-9.167,4.104-9.167,9.167 v113.318l3.046-4.62l-5.61,8.509c-9.386,14.235-9.386,32.631,0,46.867l31.286,47.453c1.762,2.673,4.684,4.123,7.662,4.123 c1.732,0,3.483-0.49,5.037-1.514c4.227-2.787,5.395-8.473,2.608-12.699L87.244,165.486z"/> <path style="fill:#000a18;" d="M440.063,128.712l-3.174-4.813V11.506c0-5.063-4.103-9.167-9.167-9.167s-9.167,4.104-9.167,9.167 v84.585l7.903,11.987l-58.637-88.939C359.921,7.155,346.635,0,332.28,0h-58.963c-5.064,0-9.167,4.104-9.167,9.167 s4.103,9.167,9.167,9.167h58.963c8.173,0,15.738,4.074,20.235,10.896l72.242,109.574c5.344,8.105,5.344,18.578,0,26.683 L352.515,275.06c-4.498,6.824-12.062,10.896-20.235,10.896H179.721c-8.173,0-15.738-4.074-20.235-10.897l-21.903-33.219 c-2.787-4.227-8.471-5.391-12.699-2.607c-4.228,2.787-5.395,8.473-2.608,12.699l21.903,33.219 c6.512,9.878,16.685,16.462,28.097,18.477v16.486c0,15.882,12.92,28.802,28.802,28.802h45.755v37.869 c-30.378,4.453-53.779,30.677-53.779,62.271c0,34.708,28.237,62.945,62.945,62.945s62.945-28.237,62.945-62.945 c0-5.063-4.103-9.167-9.167-9.167s-9.167,4.104-9.167,9.167c0,24.599-20.013,44.612-44.612,44.612s-44.612-20.013-44.612-44.612 s20.013-44.612,44.612-44.612c5.064,0,9.167-4.104,9.167-9.167c0-0.72-0.092-1.418-0.248-2.089 c0.156-0.672,0.248-1.369,0.248-2.089v-42.182h45.755c15.882,0,28.802-12.92,28.802-28.802v-16.486 c11.412-2.014,21.586-8.598,28.097-18.475L440.06,175.58C449.448,161.343,449.448,142.947,440.063,128.712z M321.391,320.113 c0,5.773-4.697,10.469-10.469,10.469H201.081c-5.773,0-10.468-4.696-10.468-10.469v-15.81h130.78v15.81H321.391z"/> </g> </g>
</svg>