<!DOCTYPE svg PUBLIC "-//W3C//DTD SVG 1.1//EN" "http://www.w3.org/Graphics/SVG/1.1/DTD/svg11.dtd">
<!-- Uploaded to: SVG Repo, www.svgrepo.com, Transformed by: SVG Repo Mixer Tools -->
<svg width="800px" height="800px" viewBox="0 0 512 512" id="Layer_1" version="1.1" xml:space="preserve" xmlns="http://www.w3.org/2000/svg" xmlns:xlink="http://www.w3.org/1999/xlink" fill="#000000">
<g id="SVGRepo_bgCarrier" stroke-width="0"/>
<g id="SVGRepo_tracerCarrier" stroke-linecap="round" stroke-linejoin="round"/>
<g id="SVGRepo_iconCarrier"> <style type="text/css"> .st0{fill:#5dc0e1;} .st1{fill:#000a18;} </style> <g> <path class="st1" d="M350,245.2l-10-17.4l-12.3-21.3l-0.1-0.1l-15.1-26.2c-3.9-6.7-11-10.8-18.7-10.8h-20.2h-34.6h-20.2 c-7.7,0-14.9,4.1-18.7,10.8l-9.8,17L181,213l-18.6,32.2c-3.9,6.7-3.9,14.9,0,21.6l9.9,17.1l9.2,15.8l18.5,32.1 c3.9,6.7,11,10.8,18.7,10.8h19.9h19.8h35.4c7.7,0,14.9-4.1,18.7-10.8l10-17.3v0l8.4-14.5l1-1.7l18.2-31.5 C353.9,260.1,353.9,251.9,350,245.2z M282,300.6h-51.5L204.7,256l25.8-44.6H282l25.8,44.6L282,300.6z"/> <path class="st0" d="M231.7,114.7l7.2,7.2v33.5h34.6v-33.5l41.9-41.9c3.4-3.4,5.1-7.8,5.1-12.3c0-4.4-1.7-8.9-5.1-12.2 c-6.8-6.8-17.7-6.8-24.5,0l-17.4,17.4V36c0-4.8-1.9-9.1-5.1-12.2c-3.1-3.1-7.5-5.1-12.3-5.1c-9.6,0-17.3,7.8-17.3,17.3v36.9 l-17.5-17.5c-6.8-6.8-17.7-6.8-24.5,0c-3.4,3.4-5.1,7.8-5.1,12.2c0,4.4,1.7,8.9,5.1,12.3L231.7,114.7z"/> <path class="st0" d="M381.1,204.1l9.8,2.6l47.5,12.8c4.6,1.3,9.3,0.5,13.1-1.7c3.8-2.2,6.8-5.9,8.1-10.5c2.5-9.2-3-18.8-12.2-21.2 l-23.8-6.4l32-18.4c4.1-2.4,6.9-6.2,8.1-10.5c1.2-4.3,0.7-9-1.7-13.2c-4.8-8.3-15.4-11.1-23.6-6.4l-32,18.4l6.4-23.8 c2.5-9.2-3-18.7-12.2-21.2c-4.6-1.2-9.3-0.5-13.1,1.7c-3.8,2.2-6.8,5.9-8.1,10.5l-12.8,47.5l-2.6,9.8l-29,16.7l17.3,30L381.1,204.1 z"/> <path class="st0" d="M455.2,351.5L423.2,333l23.9-6.3c9.2-2.4,14.8-11.9,12.3-21.2c-1.2-4.6-4.2-8.3-8-10.5 c-3.8-2.2-8.5-3-13.1-1.8l-47.5,12.6l-9.8,2.6l-29-16.8l-17.3,30l28.9,16.8l2.6,9.8l12.6,47.5c1.2,4.6,4.2,8.3,8.1,10.5 c3.8,2.2,8.5,3,13.1,1.8c9.3-2.4,14.8-11.9,12.3-21.2l-6.3-23.8l31.9,18.5c4.1,2.4,8.9,2.9,13.1,1.8c4.3-1.1,8.1-3.9,10.5-8 C466.2,366.9,463.4,356.3,455.2,351.5z"/> <path class="st0" d="M280.1,397.4l-7.1-7.2l0.1-33.5h-34.6l-0.1,33.4l-7.2,7.2l-34.9,34.6c-3.4,3.4-5.1,7.8-5.1,12.2 c0,4.4,1.7,8.9,5,12.3c6.7,6.8,17.7,6.8,24.5,0.1l17.5-17.4l-0.1,36.9c0,4.8,1.9,9.1,5,12.3c3.1,3.1,7.4,5.1,12.2,5.1 c9.6,0,17.3-7.7,17.4-17.3l0.1-36.9l17.4,17.5c6.7,6.8,17.7,6.8,24.5,0.1c3.4-3.4,5.1-7.8,5.1-12.2c0-4.4-1.7-8.9-5-12.3 L280.1,397.4z"/> <path class="st0" d="M131.1,307.4l-9.8-2.7l-47.4-13c-4.6-1.3-9.3-0.5-13.2,1.7c-3.9,2.2-6.9,5.9-8.1,10.5 c-2.5,9.2,2.9,18.8,12.1,21.3l23.8,6.5L56.5,350c-4.2,2.4-7,6.2-8.1,10.5c-1.2,4.3-0.7,9,1.7,13.2c4.7,8.3,15.3,11.2,23.6,6.4 l32.1-18.3l-6.5,23.8c-2.5,9.2,2.9,18.7,12.1,21.3c4.6,1.3,9.3,0.5,13.1-1.7c3.9-2.2,6.9-5.9,8.1-10.5l13-47.4l2.7-9.8l29.2-16.6 l-17.3-30L131.1,307.4z"/> <path class="st0" d="M57.6,159.7l31.9,18.7l-23.9,6.2c-9.3,2.4-14.8,11.9-12.4,21.1c1.2,4.6,4.2,8.3,8,10.6c3.8,2.3,8.5,3,13.1,1.8 l47.6-12.4l9.8-2.6l29,17l17.3-30l-28.8-16.9l-2.6-9.8l-12.4-47.6c-1.2-4.6-4.2-8.3-8-10.6c-3.8-2.2-8.5-3-13.1-1.8 c-9.3,2.4-14.8,11.9-12.4,21.1l6.2,23.9l-31.8-18.7c-4.1-2.4-8.8-2.9-13.1-1.8c-4.3,1.1-8.1,3.9-10.6,8 C46.6,144.2,49.4,154.8,57.6,159.7z"/> </g> </g>
</svg>