<svg xmlns="http://www.w3.org/2000/svg" version="1.1" xmlns:xlink="http://www.w3.org/1999/xlink" xmlns:svgjs="http://svgjs.dev/svgjs" viewBox="0 0 800 800" opacity="1"><defs><linearGradient x1="50%" y1="0%" x2="50%" y2="100%" id="uundulate-grad"><stop stop-color="#5dc0e1" stop-opacity="1" offset="45%"></stop><stop stop-color="#000a18" stop-opacity="1" offset="100%"></stop></linearGradient></defs><g stroke-width="2" stroke="url(#uundulate-grad)" fill="none"><path d="M920.515549126575 31.83024712514316C1095.5550553441267 378.43428175647045 1426.4542701499977 1189.1172464959072 1303.0867970028376 1412.8564838443635C1179.7193238556774 1636.5957211928203 632.105253593842 1218.9467973140572 328.35167802020806 1105.7785863977374C24.59810244657399 992.6103754814178 -20.4675619705896 1025.6893889850744 -154.93036575060796 869.6490714460308C-289.3931695306262 713.6087539069874 -250.01925039026412 673.924629433044 -317.06978012388197 356.78506221033126C-384.1203098574998 39.645494987618804 -639.2660224891562 -526.0316960987514 -476.772908471974 -652.6208512229892C-314.27979445479184 -779.2100063472271 171.79540515889312 -393.4368612085366 462.8971671585907 -250.84288238600845C753.9989291582885 -108.24890356348021 745.4760429090234 -314.77378750618436 920.515549126575 31.83024712514316C1095.5550553441267 378.43428175647045 1426.4542701499977 1189.1172464959072 1303.0867970028376 1412.8564838443635 "></path><path d="M903.1650247188404 44.10263834239095C1072.3698807291405 379.1532051526742 1392.2391217081486 1162.8134044007957 1272.983897665894 1379.0946671709708C1153.7286736236392 1595.3759299411458 624.3684057038649 1191.648636858342 330.73994931601874 1082.252699639232C37.11149292817254 972.856762420123 -6.451982675085674 1004.8331421403243 -136.4326929957699 853.9941685192489C-266.4134033164544 703.1551948981737 -228.3519481474376 664.7938745733618 -293.1674602232681 358.2256262580729C-357.9829722990987 51.657377942784024 -604.6238278430333 -495.1639067740404 -447.5471509597572 -617.533423394137C-290.4704740764811 -739.9029400142335 179.4022188834142 -366.98889971349945 460.8005888164553 -229.1480535183889C742.1989587494966 -91.30720732327836 733.9601687085403 -290.9479284678923 903.1650247188404 44.10263834239095C1072.3698807291405 379.1532051526742 1392.2391217081486 1162.8134044007957 1272.983897665894 1379.0946671709708 "></path><path d="M885.8145308286837 56.37496852448248C1049.1847366317318 379.8720675137215 1358.0240037838776 1136.5095012705287 1242.8810288465284 1345.3327894624217C1127.738053909179 1554.1560776543147 616.631588331466 1164.3504153674694 333.12825112940754 1058.7267518455708C49.624913927349326 953.1030883236722 7.563627137996605 983.9768342604184 -117.93498972335385 838.3392045573112C-243.4336065847043 692.701574854204 -206.68461538703298 655.6630586785234 -269.26510980507624 359.6661292706583C-331.8456042231196 63.66919986279322 -569.9816026793322 -464.29617848448567 -418.3213629299622 -582.446056600441C-266.6611231805922 -700.5959347163963 187.00906312551376 -340.54099925361857 458.7040409918982 -207.4532856859256C730.3990188582827 -74.36557211823265 722.4443250256354 -267.12213046475654 885.8145308286837 56.37496852448248C1049.1847366317318 379.8720675137215 1358.0240037838776 1136.5095012705287 1242.8810288465284 1345.3327894624217 "></path><path d="M868.4640369385268 68.64723767141788C1025.9995925343235 380.59086883961254 1323.8088858596075 1110.2055371051051 1212.7781600271633 1311.5708507187164C1101.7474341947188 1512.9361643323273 608.8947709590673 1137.0521328414407 335.5165529427966 1035.200743016753C62.138334926525886 933.3493531920649 21.579236951078656 963.120465345356 -99.43728645093779 822.6841795602168C-220.45380985295424 682.2478937750777 -185.01728262662834 646.5321817485285 -245.36275938688436 361.1065712480872C-305.70823614714044 75.68096074764605 -535.3393775156312 -433.4285112300872 -389.0955749001672 -547.3587508419013C-242.85177228470332 -661.2889904537153 194.6159073676132 -314.09315982889393 456.6074931673411 -185.75857888861856C718.5990789670689 -57.423997948343185 710.9284813427305 -243.2963934967769 868.4640369385268 68.64723767141788C1025.9995925343235 380.59086883961254 1323.8088858596075 1110.2055371051051 1212.7781600271633 1311.5708507187164 "></path><path d="M851.1135125307921 80.91959837108755C1002.8144179193371 381.30976171823795 1289.5937374177583 1083.901664492416 1182.6752606902194 1277.8090035277455C1075.7567839626809 1471.7163425630742 601.1579230690902 1109.7539418681467 337.9048242386075 1011.6748257406693C74.65172540812455 913.5957096131924 35.594816246582695 942.264187983028 -80.93961369609974 807.029246115857C-197.4740436387823 671.7943042486859 -163.34998038380184 637.4013963712682 -221.46043948627062 362.54710477825074C-279.5708985887394 87.69281318523326 -500.69718286950825 -402.56075242295435 -359.8698173879504 -512.2713535306272C-219.04245190639256 -621.9819546383 202.2227210921344 -287.6452288514349 454.5109148252059 -164.06378053857702C706.7991085582771 -40.48233222571935 699.4126071422472 -219.47056497606286 851.1135125307921 80.91959837108755C1002.8144179193371 381.30976171823795 1289.5937374177583 1083.901664492416 1182.6752606902194 1277.8090035277455 "></path><path d="M833.7629576054792 93.19186751802283C979.6292127867723 382.028563044129 1255.3785584583313 1057.5977003269925 1152.5723308356978 1244.0470647840402C1049.7661032130643 1430.4964292410873 593.421044661535 1082.4556593421182 340.29306501684005 988.1488169118516C87.16508537214497 893.8419744815851 49.61036502450861 921.4078190679656 -62.44197145883993 791.3742211187628C-174.49430794218847 661.3406231695596 -141.68270865855345 628.2705194412736 -197.558150103235 363.9875467556799C-253.43359154791648 99.70457407008598 -466.0550187409634 -371.69308516855585 -330.64409039331167 -477.1840477720874C-195.23316204565992 -582.675010375619 209.8295042990776 -261.1973894267103 452.4143059654923 -142.36907374127009C694.999107631907 -23.540758055829883 687.8967024241861 -195.64482800808332 833.7629576054792 93.19186751802283C979.6292127867723 382.028563044129 1255.3785584583313 1057.5977003269925 1152.5723308356978 1244.0470647840402 "></path><path d="M816.4124637153225 105.46425873527073C956.444068689364 382.74748644033275 1221.1634405340606 1031.2938582318816 1122.4694620163325 1210.2852481106472C1023.7754834986044 1389.2766379894128 585.6842272891361 1055.1574988864022 342.68136683022885 964.6229301533465C99.67850637132165 874.0883614202903 63.625974837590775 900.5515722232158 -43.94426818642387 775.7193181919811C-151.5145112104385 650.8870641607461 -120.01537589814882 619.1397645815914 -173.65579968504312 365.4281108034213C-227.2962234719373 111.71645702525143 -431.4127935772624 -340.82529584384486 -301.4183023635167 -442.09661994323517C-171.42381114977093 -543.3679440426254 217.43634854117693 -234.74942793167315 450.317758140935 -120.67424487365042C683.1991677406934 -6.59906181562792 676.3808587412811 -171.81896896979129 816.4124637153225 105.46425873527073C956.444068689364 382.74748644033275 1221.1634405340606 1031.2938582318816 1122.4694620163325 1210.2852481106472 "></path><path d="M799.0619393075879 117.73655839978414C933.2588940743776 383.4663182838019 1186.9482920922117 1004.9899245840363 1092.3665626793888 1176.5233398845198C997.784833266566 1348.0567551850036 577.9473793991592 1027.8592468779518 345.06963812603965 941.0969518421066C112.19189685292031 854.3346568062611 77.64155413309481 879.6952338257315 -25.44659543158582 760.0643237124648C-128.53474499626657 640.433413599198 -98.34807365532231 610.0089181691746 -149.75347978442937 366.86858329842835C-201.15888591353627 123.72824842768227 -396.7705989311395 -309.95759807186823 -272.1925448512999 -407.0092836671173C-147.61449077146017 -504.06096926236626 225.04316226569824 -208.30155798937028 448.22117979879977 -98.97950755876536C671.3991973319014 10.342542871839669 664.8649845407981 -147.99320148423362 799.0619393075879 117.73655839978414C933.2588940743776 383.4663182838019 1186.9482920922117 1004.9899245840363 1092.3665626793888 1176.5233398845198 "></path><path d="M781.7114454174312 130.00894961703204C910.0737499769689 384.1852416800057 1152.733174167941 978.6860824889254 1062.2636938600235 1142.7615232111273C971.7942135521062 1306.8369639333287 570.2105620267603 1000.561086422236 347.45793993942857 917.5710650836015C124.70531785209698 834.5810437449668 91.65716394617698 858.8389869809816 -6.948892159169759 744.4094207856831C-105.5549482645165 629.9798545903845 -76.68074089491768 600.8781633094927 -125.85112936623739 368.3091473461702C-175.02151783755716 135.7401313828476 -362.12837376743846 -279.08980874715724 -242.96675682150487 -371.921855838265C-123.80513987557129 -464.75390292937277 232.65000650779768 -181.85359649433315 446.1246319742427 -77.2846786911457C659.5992574406873 27.284239112041632 653.349140857893 -124.16734244594147 781.7114454174312 130.00894961703204C910.0737499769689 384.1852416800057 1152.733174167941 978.6860824889254 1062.2636938600235 1142.7615232111273 "></path><path d="M764.3609210096963 142.28121876396733C886.8885753619825 384.9040430058967 1118.518025726092 952.382118323502 1032.16079452308 1108.9995844674218C945.8035633200677 1265.6170506113415 562.4737141367832 973.2628038962075 349.84621123523937 894.0450562547835C137.21870833369553 814.8273086133595 105.67274324168102 837.9826180659193 11.548780595668177 728.7543957885889C-82.57518205034467 619.5261735112581 -55.01343865209117 591.7472863794978 -101.94880946562364 369.74958932359914C-148.8841802791561 147.75189226770044 -327.48617912131556 -248.2221414927588 -213.74099930928804 -336.83455007972526C-99.99581949726053 -425.4469586666918 240.2568202323189 -155.4057570696085 444.02805363210746 -55.589971893838765C647.7992870318956 44.22581328193098 641.8332666574101 -100.34160547796182 764.3609210096963 142.28121876396733C886.8885753619825 384.9040430058967 1118.518025726092 952.382118323502 1032.16079452308 1108.9995844674218 "></path><path d="M747.0103660843833 154.55360998121523C863.7033702294179 385.62296640210025 1084.3028467666652 926.0782762283911 1002.0578646685583 1075.2377677940292C919.8128825704516 1224.3972593596668 554.736835729228 945.9646434404915 352.23445201347204 870.5191694962782C149.73206829771595 795.0736955520649 119.68829201960693 817.1263712211694 30.0464228329281 713.0994928618072C-59.595446353750845 609.0726145024448 -33.346166926842784 582.6165315198159 -78.04652008258802 371.1901533713408C-122.7468732383332 159.76377522286566 -292.8440149927708 -217.3543521680478 -184.51527231464934 -301.747122250873C-76.1865296365279 -386.1398923336983 247.86360343926208 -128.95779557457126 441.9314447723939 -33.8951430262191C635.9992861055257 61.16750952213306 630.3173619393488 -76.51574643966978 747.0103660843833 154.55360998121523C863.7033702294179 385.62296640210025 1084.3028467666652 926.0782762283911 1002.0578646685583 1075.2377677940292 "></path><path d="M729.6599027118048 166.82590964572864C840.5182566495876 386.3417982455694 1050.0877593599726 899.7743425805456 971.9550263667711 1041.4758595679016C893.8222933735694 1183.1773765552578 547.0000488744072 918.6663914320411 354.62278434443897 846.9931911850383C162.24551981447075 775.3199909380357 133.70393235026722 796.2700328236851 48.54415662292229 697.4444983822909C-36.61561910442265 598.6189639408967 -11.678803648860026 573.4856851073991 -54.14413914681796 372.63062586634794C-96.6094746447759 171.77556662529662 -258.2017593114916 -186.48665439607117 -155.28945376727626 -266.65978597475515C-52.377148223060885 -346.83291755343913 255.47047819893965 -102.5099256322685 439.8349274654148 -12.200405711334042C624.19937673189 78.10911420960042 618.8015487740222 -52.68997895411212 729.6599027118048 166.82590964572864C840.5182566495876 386.3417982455694 1050.0877593599726 899.7743425805456 971.9550263667711 1041.4758595679016 "></path><path d="M712.3093477864918 179.09817879266393C817.333051517023 387.06059957146044 1015.8725804005453 873.4703784151222 941.8520965122493 1007.7139208241963C867.8316126239533 1141.9574632332706 539.263170466852 891.3681089060126 357.01102512267164 823.4671823562207C174.7588797784913 755.5662558064289 147.71948112819314 775.4136639086228 67.0417988601821 681.7894733851967C-13.635883407828828 588.1652828617707 9.988468076388358 564.3548081774047 -30.241849763782284 374.071067843777C-70.47216760395298 183.78732751014945 -223.5595951829468 -155.61898714167273 -126.06372677263755 -231.5724802162154C-28.567858362328252 -307.52597329075815 263.0772614058827 -76.06208620754387 437.73831860570135 9.49430108597312C612.3993758055199 95.05068837949 607.2856440559608 -28.86424198613247 712.3093477864918 179.09817879266393C817.333051517023 387.06059957146044 1015.8725804005453 873.4703784151222 941.8520965122493 1007.7139208241963 "></path><path d="M694.9588233787572 191.37047845717734C794.1478769020364 387.7794314149296 981.6574319586964 847.1664447672767 911.7491971753057 973.9520125980691C841.8409623919151 1100.7375804288613 531.526322576875 864.0698568975622 359.39929641848244 799.9412040449811C187.27227026008984 735.8125511923997 161.73506042369718 754.5573255111385 85.53947161502015 666.1344789056805C9.343882806343004 577.7116323002226 31.655770319214867 555.223961764988 -6.339529863168536 375.51154033878413C-44.33483004555194 195.7991189125804 -188.9174005368239 -124.75128936969611 -96.83796926042066 -196.48514394009754C-4.758537984017494 -268.218998510499 270.6840751304039 -49.61421626524111 435.641740263566 31.18903840085818C600.5994053967279 111.99229306695747 595.7697698554778 -5.038474500574807 694.9588233787572 191.37047845717734C794.1478769020364 387.7794314149296 981.6574319586964 847.1664447672767 911.7491971753057 973.9520125980691 "></path><path d="M677.6083600061786 203.642808639269C770.9627633222062 388.498293775977 947.442344552004 820.8625416370096 881.6463588735185 940.1901348895199C815.8503731950332 1059.5177281420301 523.7895357220543 836.7716354066899 361.78762874944937 776.4152562513193C199.78572177684464 716.0588770959487 175.75070075435747 733.7010176312324 104.03720540501433 650.4795149437423C32.3237100556712 567.2580122562526 53.32313359719768 546.0931458701493 17.56285107260146 376.9520433513694C-18.197431451994703 207.81094083258938 -154.27514485554474 -93.88356108014136 -67.61215071304758 -161.39777714640155C19.050843429449515 -228.91199321266174 278.2909498900815 -23.166315805360227 433.54522295658694 52.88380623332148C588.7994960230924 128.9339282720032 584.253956690151 18.787323502561094 677.6083600061786 203.642808639269C770.9627633222062 388.498293775977 947.442344552004 820.8625416370096 881.6463588735185 940.1901348895199 "></path><path d="M660.2578050808656 215.91513882136064C747.7775581896415 389.2171561370243 913.227165592577 794.5586385067427 851.5434290189969 906.4282571809708C789.8596924454168 1018.2978758551992 516.0526573144991 809.4734139158177 364.17586952768215 752.8893084576578C212.29908174086518 696.3052029994979 189.76624953228338 712.8447097513263 122.53484764227414 634.8245509818044C55.30344575226502 556.8043922122829 74.99040532244607 536.9623299753111 41.46514045563714 378.3925463639547C7.939875588828215 219.82276275259846 -119.63298072699996 -63.015832790586614 -38.38642371840888 -126.31041035270556C42.860133290182205 -189.6049879148245 285.8977330970247 3.2815846545207705 431.4486140968735 74.57857406578478C576.9994950967224 145.8755634770489 572.7380519720898 42.61312150569688 660.2578050808656 215.91513882136064C747.7775581896415 389.2171561370243 913.227165592577 794.5586385067427 851.5434290189969 906.4282571809708 "></path><path d="M642.9073111907092 228.18743848587405C724.592414092233 389.93598798049356 879.012047668306 768.2547048588972 821.4405601996314 872.6663489548437C763.8690727309568 977.0779930507902 508.3158399421002 782.1751619073675 366.56417134107096 729.3633301464183C224.81250274004185 676.5514983854689 203.78185934536555 691.988371353842 141.03255091469032 619.1695565022883C78.28324248401503 546.3507416507348 96.6577380828507 527.8314835628945 65.36749087382907 379.83301885896196C34.07724366480738 231.83455415502942 -84.99075556329893 -32.14813501860999 -9.160635688613922 -91.2230740765877C66.66948418607109 -150.29801313456534 293.5045773391241 29.72945459682353 429.3520662723163 96.27331138067007C565.1995552055085 162.8171681645165 561.2222082891849 66.43888899125454 642.9073111907092 228.18743848587405C724.592414092233 389.93598798049356 879.012047668306 768.2547048588972 821.4405601996314 872.6663489548437 "></path><path d="M625.5567562653961 240.4597686679656C701.4072089596684 390.65485034154085 844.7968687088792 741.9508017286298 791.3376303451096 838.9044712462946C737.8783919813404 935.858140763959 500.5789615345451 754.8769404164952 368.95241211930374 705.8373823527565C237.32586270406227 656.7978242890181 217.79740812329135 671.1320634739359 159.53019315195013 603.5145925403503C101.26297818060885 535.8971216067648 118.32500980809908 518.700667668056 89.26978025686469 381.27352187154725C60.2145507056303 243.8463760750385 -50.3485914347541 -1.2804067290553007 20.065091306024783 -56.1357072828917C90.47877404680372 -110.9910078367281 301.1113605460672 56.177355056704414 427.25545741260294 117.96807921313336C553.3995542791386 179.7588033695622 549.7063035711236 90.26468699439044 625.5567562653961 240.4597686679656C701.4072089596684 390.65485034154085 844.7968687088792 741.9508017286298 791.3376303451096 838.9044712462946 "></path><path d="M608.2062623752394 252.73209885005724C678.2220648622601 391.37371270258825 810.5817507846084 715.6468985983627 761.2347615257445 805.1425935377456C711.8877722668803 894.6382884771283 492.84214416214616 727.578718925623 371.34071393269255 682.3114345590952C249.83928370323895 637.044150192567 231.8130179363735 650.2757555940298 178.0278964243662 587.8596285784124C124.24277491235887 525.443501562795 139.99234256850372 509.5698517732176 113.17213067505656 382.7140248841325C86.35191878160947 255.8581979950476 -15.70636627105307 29.587321560499447 49.290879335819795 -21.04834048919571C114.28812494269266 -71.68400253889081 308.71820478816653 82.6252555165853 425.1589095880456 139.66284704559666C541.5996143879248 196.70043857460792 538.1904598882187 114.09048499752623 608.2062623752394 252.73209885005724C678.2220648622601 391.37371270258825 810.5817507846084 715.6468985983627 761.2347615257445 805.1425935377456 "></path><path d="M590.8557379675046 265.0044290321489C655.0368902472735 392.09257506363565 776.3666023427595 689.3429954680955 731.1318621888008 771.3807158291966C685.8971220348421 853.4184361902971 485.1052962721692 700.2804974347509 373.72898522850335 658.7854867654336C262.3526741848375 617.2904760961162 245.82859723187755 629.4194477141236 196.52556917920418 572.2046646164744C147.2225411265308 514.9898815188251 161.65964481133022 500.4390358783792 137.07445057567037 384.1545278967179C112.48925634001051 267.8700199150567 18.935828375069832 60.455049850054195 78.51663684803663 14.039026304500283C138.09744532100342 -32.37699724105357 316.32501851268785 109.07315597646624 423.0623312459104 161.35761487805996C529.7996439791327 213.64207377965363 526.6745856877355 137.91628300066208 590.8557379675046 265.0044290321489C655.0368902472735 392.09257506363565 776.3666023427595 689.3429954680955 731.1318621888008 771.3807158291966 "></path><path d="M573.5051525246135 277.2767592142404C631.8516545971308 392.81143742468294 742.1513928657545 663.0390923378284 701.028901816701 737.6188381206475C659.9064107676477 812.1985839034662 477.3683873470359 672.9822759438786 376.1171954891579 635.2595389717719C274.8660036312799 597.5368019996653 259.84411549222534 608.5631398342175 215.02318089888593 556.5497006545364C170.20224630554645 504.5362614748552 183.32688601900048 491.30821998354077 160.97670944112787 385.5950309093032C138.6265328632553 279.88184183506564 53.577961986036485 91.32277813960889 107.7423333250972 49.126393098196274C161.90670466415793 6.930008056783663 323.9317712020529 135.52105643634718 420.9656918686188 183.05238271052326C517.9996125351847 230.58370898469934 515.1586504520963 161.74208100379792 573.5051525246135 277.2767592142404C631.8516545971308 392.81143742468294 742.1513928657545 663.0390923378284 701.028901816701 737.6188381206475 "></path><path d="M556.1546281168787 289.54908939633196C608.6664799821443 393.5302997857302 707.9362444239055 636.7351892075611 670.9260024797575 703.8569604120981C633.9157605356095 770.9787316166353 469.6315394570588 645.6840544530063 378.5054667849686 611.7335911781104C287.37939411287846 577.7831279032144 273.8596947877294 587.7068319543114 233.52085365372386 540.8947366925984C193.1820125197184 494.08264143088536 204.994188261827 482.17740408870236 184.87902934174167 387.0355339218885C164.7638704216563 291.8936637550747 88.22015663215939 122.19050642916363 136.96809083731404 84.21375989189227C185.7160250424687 46.237013354620956 331.53858492657423 161.96895689622806 418.8691135264835 204.74715054298656C506.19964212639275 247.52534418974506 503.6427762516132 185.56787900693377 556.1546281168787 289.54908939633196C608.6664799821443 393.5302997857302 707.9362444239055 636.7351892075611 670.9260024797575 703.8569604120981 "></path><path d="M538.8041342267221 301.8214195784235C585.4813358847359 394.2491621467775 673.7211264996348 610.4312860772939 640.823133660392 670.095082703549C607.9251408211494 729.7588793298041 461.89472208466 618.385832962134 380.8937685983575 588.2076433844487C299.89281511205513 558.0294538067634 287.87530460081155 566.8505240744053 252.01855692613998 525.2397727306602C216.1618092514684 483.6290213869154 226.66152102223168 473.0465881938637 208.78137975993354 388.47603693447377C190.90123849763546 303.9054856750838 122.86238179586041 153.05823471871838 166.193878867109 119.30112668558826C209.52537593835757 85.54401865245819 339.14542916867356 188.41685735610895 416.7725657019263 226.4419183754498C494.399702235179 264.46697939479066 492.1269325687083 209.3936770100696 538.8041342267221 301.8214195784235C585.4813358847359 394.2491621467775 673.7211264996348 610.4312860772939 640.823133660392 670.095082703549 "></path><path d="M521.4536403365655 314.0937345017261C562.2961917873274 394.96800924903584 639.5060085753639 584.1273676882377 610.7202648410266 636.3331897362109C581.9345211066893 688.5390117841841 454.15790471226103 591.0875962124728 383.2820704117464 564.6816803319982C312.40623611123186 538.2757644515235 301.8909144138937 545.9942009357101 270.5162601985561 509.5847935099332C239.14160598321848 473.17538608415646 248.32885378263632 463.91575704023626 232.68373017812547 389.9165246882701C217.03860657361463 315.9172923363037 157.5046069595615 183.92594774948407 195.419666896904 154.38847822049524C233.3347268342465 124.85100869150637 346.752273410773 214.86474255720083 414.6760178773691 248.1366709491241C482.59976234396527 281.4085993410473 480.6110888858034 233.21945975441633 521.4536403365655 314.0937345017261C562.2961917873274 394.96800924903584 639.5060085753639 584.1273676882377 610.7202648410266 636.3331897362109 "></path><path d="M504.10313118761974 326.3660646838177C539.1110324311301 395.68687161008324 605.2908753923042 557.8234645579704 580.6173807628722 602.5713120276619C555.9438861334402 647.3191594973532 446.42107208107313 563.7893747216006 385.6703569663463 541.1557325383367C324.9196418516195 518.5220903550726 315.90650896818676 525.1378930558039 289.0139482121831 493.92982954799527C262.12138745617943 462.7217660401866 269.99617128425183 454.78494114539785 256.5860653375283 391.35702770085527C243.17595939080473 327.92911425631286 192.14681686447346 214.79367603903876 224.6454396679099 189.47584501419124C257.14406247134633 164.15801398934366 354.35910239408327 241.3126430170817 412.5794547940228 269.8314387815874C470.79980719396235 298.350234546093 469.0952299441094 257.0452577575522 504.10313118761974 326.3660646838177C539.1110324311301 395.68687161008324 605.2908753923042 557.8234645579704 580.6173807628722 602.5713120276619 "></path><path d="M486.7525762623068 338.6383948659093C515.9258272985654 396.40573397113053 571.0756964328773 531.5195614277033 550.5144509083505 568.8094343191128C529.9532053838238 606.0993072105222 438.68419367351794 536.4911532307283 388.05859774457895 517.629784744675C337.43300181563995 498.76841625862176 329.92205774611267 504.2815851758978 307.51159044944296 478.27486558605733C285.10112315277325 452.2681459962166 291.66344300950027 445.65412525055945 280.48835472056396 392.79753071344066C269.31326643162765 339.9409361763219 226.78898099301824 245.6614043285935 253.8711666625486 224.56321180788723C280.95335233207896 203.4650192871809 361.96588560102646 267.76054347696265 410.48284593430935 291.5262066140507C458.99980626759236 315.29186975113873 457.5793252260481 280.871055760688 486.7525762623068 338.6383948659093C515.9258272985654 396.40573397113053 571.0756964328773 531.5195614277033 550.5144509083505 568.8094343191128 "></path><path d="M469.402067113361 350.91070978921175C492.74066794236796 397.12458107338875 536.8605632498175 505.21564303864693 520.4115668301961 535.0475413517745C503.9625704105747 564.8794396649021 430.94736104232993 509.19291648106696 390.44688429917875 494.1038216922243C349.94640755602757 479.01472690338164 343.9376523004058 483.42526203720263 326.00927846306996 462.6198863653301C308.0809046257342 441.8145106934577 313.33076051111584 436.52329409693186 304.39068987996677 394.2380184672369C295.45061924881776 351.9527428375419 261.4311908979302 276.5291173593592 283.0969394335545 259.65056334279416C304.7626879691788 242.77200932622912 369.5727145843368 294.2084286780545 408.38628285096314 313.22095918772493C447.19985111758956 332.2334896973953 446.06346628435415 304.6968385050348 469.402067113361 350.91070978921175C492.74066794236796 397.12458107338875 536.8605632498175 505.21564303864693 520.4115668301961 535.0475413517745 "></path><path d="M452.0515427056263 363.1830399713034C469.55549332738144 397.84344343443615 502.64541480796856 478.9117399083798 490.3086674932525 501.28566364322546C477.9719201785365 523.6595873780711 423.210513152353 481.8946949901948 392.83515559498954 470.57787389856287C362.4597980376262 459.2610528069308 357.9532315959098 462.5689541572965 344.50695121790795 446.96492240339217C331.06067083990615 431.3608906494878 334.99806275394235 427.39247820209346 328.2930097805806 395.67852147982217C321.58795680721875 363.964564757551 296.0733855440531 307.39684564891394 312.3226969457713 294.73793013649015C328.57200834748954 282.07901462406636 377.17952830885804 320.6563291379354 406.2897045088278 334.9157270201882C435.3998807087976 349.17512490244104 434.5475920838711 328.52263650817065 452.0515427056263 363.1830399713034C469.55549332738144 397.84344343443615 502.64541480796856 478.9117399083798 490.3086674932525 501.28566364322546 "></path><path d="M434.7010335566805 375.4553548946059C446.370333971184 398.5622905366944 468.43028162490873 452.60782151932347 460.20578341509804 467.52377067588725C451.98128520528735 482.43971983245103 415.47368052116497 454.5964582405335 395.2234421495894 447.05191084611215C374.9732037780138 439.5073634516908 371.96882615020286 441.7126310186013 363.004639231535 431.30994318266505C354.0404523128671 420.90725534672885 356.6653802555579 418.26164704846593 352.1953449399834 397.11900923361844C347.72530962440885 375.97637141877095 330.71559544896513 338.26455867967957 341.5484697167773 329.8252816713971C352.3813439845894 321.38600466311453 384.7863572921684 347.10421433902724 404.1931414254816 356.61047959386246C423.5999255587948 366.11674484869764 423.0317331421771 352.3484192525174 434.7010335566805 375.4553548946059C446.370333971184 398.5622905366944 468.43028162490873 452.60782151932347 460.20578341509804 467.52377067588725 "></path><path d="M417.3505091489457 387.7276698179084C423.18515935619746 399.28113763895266 434.21513318305983 426.3039031302672 430.1028840781545 433.7618777085491C425.99063497324914 441.219852286831 407.73683263118795 427.2982214908722 397.61171344540014 423.52594779366154C387.4865942596124 419.7536740964509 385.9844054457069 420.8563078799061 381.50231198637294 415.654963961938C377.02021852703905 410.45362004396986 378.33268249838443 409.1308158948384 376.0976648405972 398.5594969874147C373.8626471828099 387.9881780799909 365.35779009508803 369.13227171044525 370.7742272289941 364.912633206304C376.1906643629002 360.69299470216276 392.3931710166897 373.5520995401191 402.09656308334627 378.3052321675367C411.79995515000286 383.0583647949543 411.515858941694 376.17420199686416 417.3505091489457 387.7276698179084C423.18515935619746 399.28113763895266 434.21513318305983 426.3039031302672 430.1028840781545 433.7618777085491 "></path></g></svg>