<svg xmlns="http://www.w3.org/2000/svg" xml:space="preserve" width="1.70666in" height="1.70666in" version="1.1" style="shape-rendering:geometricPrecision; text-rendering:geometricPrecision; image-rendering:optimizeQuality; fill-rule:evenodd; clip-rule:evenodd" viewBox="0 0 1706.66 1706.66" xmlns:xlink="http://www.w3.org/1999/xlink" xmlns:xodm="http://www.corel.com/coreldraw/odm/2003">
 <defs>
  <style type="text/css">
   
    .fil6 {fill:black}
    .fil8 {fill:#0698BD}
    .fil9 {fill:#4A5254}
    .fil1 {fill:#638A9B}
    .fil10 {fill:#8BC9D4}
    .fil7 {fill:#93553F}
    .fil3 {fill:#A35E46}
    .fil0 {fill:#B3B3B3}
    .fil2 {fill:#C88362}
    .fil5 {fill:#FA3C48}
    .fil4 {fill:#FBE201}
   
  </style>
 </defs>
 <g id="Layer_x0020_1">
  <metadata id="CorelCorpID_0Corel-Layer"></metadata>
  <path class="fil0" d="M1531.78 1541.46c-9.15,0 -16.94,-6.28 -19.28,-14.72l-1317.97 -4.04c-1.56,25.44 -39.96,24.36 -39.96,-1.24l0 -990c0,-19.07 20.94,-24.34 32.52,-15.82l628.32 -348.83 700.82 351.68c10.42,-12.22 35.56,-7.9 35.56,12.97l0 990c0,10.97 -9.03,20 -20,20z" id="id_101" style="fill: rgb(93, 192, 225);"></path>
  <path class="fil1" d="M1336.23 1541.46l-966.11 0c-11.11,0 -20,-9.03 -20,-20l0 -828.33c0,-11.11 8.89,-20 20,-20l966.24 0c10.97,0 20,8.89 20,20l0 828.33c-0.14,10.97 -9.03,20 -20.14,20zm-19.86 -645.13l-926.24 0 0 605.13 926.24 0 0 -605.13z" id="id_102" style="fill: rgb(0, 10, 24);"></path>
  <path class="fil2" d="M1009.01 1300.63l-311.67 0c-11.11,0 -20,-9.03 -20,-20l0 -240.83c0,-10.97 8.89,-20 20,-20l311.8 0c10.97,0 20,9.03 20,20l0 240.83c0,10.97 -9.03,20 -20.14,20z" id="id_103"></path>
  <path class="fil3" d="M1164.98 1541.46l-311.81 0c-11.11,0 -20,-9.03 -20,-20l0 -240.83c0,-10.97 8.89,-20 20,-20l311.81 0c10.97,0 20,9.03 20,20l0 240.83c0,10.97 -9.03,20 -20,20z" id="id_104"></path>
  <path class="fil4" d="M943.31 1260.62l131.39 0 0 102.78c0,10.96 -8.89,20 -20,20l-91.39 0c-10.97,0 -20,-9.03 -20,-20l0 -102.78z" id="id_105" style="fill: rgb(0, 10, 24);"></path>
  <path class="fil4" d="M787.48 1019.79l131.38 0 0 102.78c0,10.95 -9.03,20 -20,20l-91.38 0c-11.09,0 -20,-9.03 -20,-20l0 -102.78z" id="id_106" style="fill: rgb(0, 10, 24);"></path>
  <path class="fil5" d="M1632.76 601.88c-3.06,0 -6.11,-0.69 -8.89,-2.08l-770.69 -384.58 -770.69 384.58c-9.85,4.92 -21.88,0.98 -26.81,-8.89l-53.61 -107.5c-4.86,-9.86 -0.97,-21.94 9.03,-26.81l833.33 -415.83c5.69,-2.78 12.22,-2.78 17.91,0l833.33 415.83c9.87,4.93 13.81,16.95 8.89,26.81l-53.61 107.5c-3.75,6.94 -10.83,10.97 -18.19,10.97z" id="id_107" style="fill: rgb(0, 10, 24);"></path>
  <path class="fil4" d="M462.48 829.52c-27.06,0 -20,-37.05 -20,-69.72 0,-26.36 40,-26.36 40,0 0,32.67 7.06,69.72 -20,69.72z" id="id_108" style="fill: rgb(93, 192, 225);"></path>
  <path class="fil4" d="M560.26 829.52c-27.06,0 -20,-37.05 -20,-69.72 0,-26.36 40,-26.36 40,0 0,32.44 7.05,69.72 -20,69.72z" id="id_109" style="fill: rgb(93, 192, 225);"></path>
  <path class="fil4" d="M657.9 829.52c-27.06,0 -20,-37.05 -20,-69.72 0,-26.36 40,-26.36 40,0 0,32.42 7.05,69.72 -20,69.72z" id="id_110" style="fill: rgb(93, 192, 225);"></path>
  <path class="fil4" d="M755.54 829.52c-27.06,0 -20,-37.05 -20,-69.72 0,-26.36 40,-26.36 40,0 0,32.44 7.05,69.72 -20,69.72z" id="id_111" style="fill: rgb(93, 192, 225);"></path>
  <path class="fil4" d="M853.17 829.52c-27.05,0 -20,-37.05 -20,-69.72 0,-26.4 40,-26.3 40,0 0,32.44 7.05,69.72 -20,69.72z" id="id_112" style="fill: rgb(93, 192, 225);"></path>
  <path class="fil4" d="M950.81 829.52c-27.05,0 -20,-37.28 -20,-69.72 0,-26.33 40,-26.33 40,0 0,32.67 7.06,69.72 -20,69.72z" id="id_113" style="fill: rgb(93, 192, 225);"></path>
  <path class="fil4" d="M1048.45 829.52c-27.05,0 -20,-37.28 -20,-69.72 0,-26.33 40,-26.33 40,0 0,32.68 7.06,69.72 -20,69.72z" id="id_114" style="fill: rgb(93, 192, 225);"></path>
  <path class="fil4" d="M1146.09 829.52c-27.05,0 -20,-37.28 -20,-69.72 0,-26.33 40,-26.33 40,0 0,32.67 7.06,69.72 -20,69.72z" id="id_115" style="fill: rgb(93, 192, 225);"></path>
  <path class="fil4" d="M1243.87 829.52c-27.05,0 -20,-37.28 -20,-69.72 0,-26.33 40,-26.33 40,0 0,32.44 7.05,69.72 -20,69.72z" id="id_116" style="fill: rgb(93, 192, 225);"></path>
  <polygon class="fil6" points="561.37,1501.46 833.18,1501.46 833.18,1300.62 561.37,1300.63 " id="id_117"></polygon>
  <path class="fil7" d="M853.17 1541.46l-311.8 0c-11.11,0 -20,-9.03 -20,-20l0 -240.83c0,-10.97 8.89,-20 20,-20l311.8 0c10.97,0 20,9.03 20,20l0 240.83c0,10.97 -9.03,20 -20,20z" id="id_118"></path>
  <path class="fil4" d="M631.65 1260.62l131.39 0 0 102.78c0,10.96 -9.03,20 -20,20l-91.39 0c-11.11,0 -20,-9.03 -20,-20l0 -102.78z" id="id_119" style="fill: rgb(0, 10, 24);"></path>
  <path class="fil8" d="M1002.06 589.24l-297.91 0c-11.11,0 -20,-8.89 -20,-20l0 -177.08c0,-11.11 8.89,-20 20,-20l297.91 0c10.97,0 20,8.89 20,20l0 177.08c0.14,10.97 -8.89,20 -20,20z" id="id_120" style="fill: rgb(0, 10, 24);"></path>
  <path class="fil9" d="M1632.89 1667.98l-1559.44 0c-11.11,0 -20,-9.03 -20,-20l0 -126.67c0,-10.97 8.89,-20 20,-20l1559.3 0c10.97,0 20,9.03 20,20l0 126.67c0.14,11.11 -8.89,20 -19.86,20z" id="id_121" style="fill: rgb(0, 10, 24);"></path>
  <path class="fil10" d="M390.12 896.33l0 604.99 131.25 0 0 -220.7c0,-10.97 8.89,-20 20,-20l135.97 0 0 -220.83c0,-10.97 8.89,-20 20,-20l311.8 0c10.97,0 20,9.03 20,20l0 220.83 135.83 0c10.97,0 20,9.03 20,20l0 220.69 131.39 0 0 -604.99 -926.24 0z" id="id_122"></path>
 </g>
</svg>